# xmcd
#
# Track frame offsets: 
#        150
#        19333
#        36258
#        51489
#        87945
#        106998
#        118651
#        137985
#        168835
#        191436
#        207515
#        244706
#        261251
#        282672
#        289445
#        323082
#
# Disc length: 4686 seconds
#
# Revision: 3
# Processed by: cddbd v1.5.1PL0 Copyright (c) Steve Scherf et al.
# Submitted via: ExactAudioCopy v0.90b4
#
DISCID=fb124c10
DTITLE=Various Artist - Loop Select 003 [CD1]
DYEAR=2002
DGENRE=Dance
TTITLE0=Sheelahroc - If I Gave U Th' Mic 
TTITLE1=Breaks Co-op - Sound Advice
TTITLE2=Juse - Music Life
TTITLE3=Fat Freddy's Drop - Runnin'
TTITLE4=50Hz - Smooth Rhodes
TTITLE5=Rhian Sheehan - An Afternoon On The Moon
TTITLE6=Shapeshifter - Move With Me
TTITLE7=TrinityRoots - Little Things (Mu's mix)
TTITLE8=The Dub Connection - All The Goodness (Jet Jaguar mix)
TTITLE9=The Black Seeds - Almost Home (Jet Jaguar remix)
TTITLE10=Bongmaster - Ground My Ego
TTITLE11=Che Fu - Waka
TTITLE12=The Nomad - Once Again
TTITLE13=Confucius - Deep and Meaningful
TTITLE14=Mark de Clive-Lowe - Day By day
TTITLE15=Data track
EXTD=YEAR: 2002
EXTT0=
EXTT1=
EXTT2=
EXTT3=
EXTT4=
EXTT5=
EXTT6=
EXTT7=
EXTT8=
EXTT9=
EXTT10=
EXTT11=
EXTT12=
EXTT13=
EXTT14=
EXTT15=
PLAYORDER=
